<svg xmlns="http://www.w3.org/2000/svg" width="897.297" height="136.776" viewBox="0 0 897.297 136.776">
  <g id="Group_6113" data-name="Group 6113" transform="translate(-782.633 -1004)">
    <path id="Path_23936" data-name="Path 23936" d="M24.853-69.881a6,6,0,0,1-4.416-1.794,6,6,0,0,1-1.794-4.416v-59.2a6.233,6.233,0,0,1,1.794-4.484,5.889,5.889,0,0,1,4.416-1.863,6.113,6.113,0,0,1,4.485,1.863,6.113,6.113,0,0,1,1.863,4.484v5.933q9.659-12.971,21.664-12.971h.69a5.775,5.775,0,0,1,4.347,1.794,6.127,6.127,0,0,1,1.725,4.416,5.556,5.556,0,0,1-1.794,4.278,6.452,6.452,0,0,1-4.553,1.656h-.69a23.535,23.535,0,0,0-12.143,3.243,27.964,27.964,0,0,0-9.245,8.9V-76.09a5.889,5.889,0,0,1-1.863,4.416A6.233,6.233,0,0,1,24.853-69.881Zm76.03.69q-16.834,0-26.286-9.59t-9.452-26.976a44.973,44.973,0,0,1,3.588-18.076,30.726,30.726,0,0,1,11.039-13.385q7.451-5.105,18.352-5.105a32.1,32.1,0,0,1,17.662,4.76A30.785,30.785,0,0,1,127.1-124.868a39.021,39.021,0,0,1,3.864,17.317,6.127,6.127,0,0,1-1.725,4.416,6.114,6.114,0,0,1-4.622,1.794H77.84q1.1,9.659,7.175,15.04t16.972,5.381a41.477,41.477,0,0,0,10.142-1.1,42.121,42.121,0,0,0,8.486-3.174,5.477,5.477,0,0,1,2.484-.552,5.538,5.538,0,0,1,3.864,1.518,5.011,5.011,0,0,1,1.656,3.864q0,3.036-3.588,5.105a49.95,49.95,0,0,1-10.625,4.553A49.813,49.813,0,0,1,100.883-69.191Zm17.662-42.361a22.108,22.108,0,0,0-3.519-11.315,19,19,0,0,0-7.658-6.692,21.546,21.546,0,0,0-9.245-2.139,21.546,21.546,0,0,0-9.245,2.139,18.528,18.528,0,0,0-7.589,6.692,22.523,22.523,0,0,0-3.45,11.315Zm61.541,42.361a38.9,38.9,0,0,1-18.352-4.416A33.987,33.987,0,0,1,148.281-86.3a36.7,36.7,0,0,1-5.036-19.456,36.7,36.7,0,0,1,5.036-19.456,33.987,33.987,0,0,1,13.454-12.695,38.9,38.9,0,0,1,18.352-4.416,38.245,38.245,0,0,1,12.626,1.863,47.7,47.7,0,0,1,9.866,4.76,5.509,5.509,0,0,1,2.76,4.829,5.49,5.49,0,0,1-1.587,3.795,4.843,4.843,0,0,1-3.657,1.725,6.29,6.29,0,0,1-3.036-.828,52.547,52.547,0,0,0-7.8-3.381,26.905,26.905,0,0,0-8.072-1.035q-11.867,0-18.628,6.83T155.8-105.757q0,11.177,6.761,18.007t18.628,6.83a26.905,26.905,0,0,0,8.072-1.035,52.546,52.546,0,0,0,7.8-3.381,6.29,6.29,0,0,1,3.036-.828,4.843,4.843,0,0,1,3.657,1.725,5.49,5.49,0,0,1,1.587,3.795,5.509,5.509,0,0,1-2.76,4.829,47.7,47.7,0,0,1-9.866,4.76A38.245,38.245,0,0,1,180.086-69.191Zm47.191-.69a6,6,0,0,1-4.416-1.794,6,6,0,0,1-1.794-4.416v-59.2a6.233,6.233,0,0,1,1.794-4.484,5.889,5.889,0,0,1,4.416-1.863,6.113,6.113,0,0,1,4.485,1.863,6.113,6.113,0,0,1,1.863,4.484v5.933q9.659-12.971,21.664-12.971h.69a5.775,5.775,0,0,1,4.347,1.794,6.127,6.127,0,0,1,1.725,4.416,5.556,5.556,0,0,1-1.794,4.278,6.452,6.452,0,0,1-4.554,1.656h-.69a23.535,23.535,0,0,0-12.143,3.243,27.964,27.964,0,0,0-9.245,8.9V-76.09a5.889,5.889,0,0,1-1.863,4.416A6.233,6.233,0,0,1,227.277-69.881Zm70.648.69a23.859,23.859,0,0,1-13.178-3.588,23.326,23.326,0,0,1-8.555-9.8,31.275,31.275,0,0,1-2.967-13.661v-39.188a5.889,5.889,0,0,1,1.863-4.416,6.233,6.233,0,0,1,4.485-1.794,6,6,0,0,1,4.416,1.794,6,6,0,0,1,1.794,4.416v37.808q0,16.834,15.178,16.834a21.959,21.959,0,0,0,12.35-3.588,44.7,44.7,0,0,0,10.28-9.659v-41.4a5.889,5.889,0,0,1,1.863-4.416,6.233,6.233,0,0,1,4.484-1.794,6,6,0,0,1,4.416,1.794,6,6,0,0,1,1.794,4.416v59.2a6.233,6.233,0,0,1-1.794,4.485,5.889,5.889,0,0,1-4.416,1.863,6.113,6.113,0,0,1-4.484-1.863,6.113,6.113,0,0,1-1.863-4.485v-5.657a45.867,45.867,0,0,1-11.315,9.245A28.571,28.571,0,0,1,297.926-69.191Zm65.957-86.1a6.775,6.775,0,0,1-4.967-2.07,6.774,6.774,0,0,1-2.07-4.967v-.552a6.774,6.774,0,0,1,2.07-4.967,6.775,6.775,0,0,1,4.967-2.07h.828a6.775,6.775,0,0,1,4.967,2.07,6.775,6.775,0,0,1,2.07,4.967v.552a6.775,6.775,0,0,1-2.07,4.967,6.775,6.775,0,0,1-4.967,2.07Zm.276,85.413a6,6,0,0,1-4.416-1.794,6,6,0,0,1-1.794-4.416v-59.2a6.233,6.233,0,0,1,1.794-4.484,5.889,5.889,0,0,1,4.416-1.863,6.17,6.17,0,0,1,4.553,1.794,6.17,6.17,0,0,1,1.794,4.553v59.2a5.889,5.889,0,0,1-1.863,4.416A6.233,6.233,0,0,1,364.158-69.881Zm52.434.69q-20.146,0-20.146-18.214V-130.18h-9.8a2.533,2.533,0,0,1-1.863-.759,2.533,2.533,0,0,1-.759-1.863,2.885,2.885,0,0,1,1.242-2.346L404.036-153.5a3.484,3.484,0,0,1,2.346-1.242,2.429,2.429,0,0,1,1.863.828,2.769,2.769,0,0,1,.759,1.932v11.039H424.6a5.234,5.234,0,0,1,3.864,1.518,5.234,5.234,0,0,1,1.518,3.864,5.3,5.3,0,0,1-1.518,3.795,5.115,5.115,0,0,1-3.864,1.587H409v41.671q0,5.381,2.553,6.83a12.858,12.858,0,0,0,6.416,1.449,19.122,19.122,0,0,0,5.519-.828q.552-.138,1.173-.276a7.519,7.519,0,0,1,1.587-.138,4.863,4.863,0,0,1,3.45,1.449,4.683,4.683,0,0,1,1.518,3.519,5.219,5.219,0,0,1-3.174,4.829A27,27,0,0,1,416.593-69.191Zm37.118-.69a6,6,0,0,1-4.416-1.794A6,6,0,0,1,447.5-76.09v-84.447a6.233,6.233,0,0,1,1.794-4.484,5.889,5.889,0,0,1,4.416-1.863h32.15q18.766,0,28.149,7.727t9.383,20.284a26.375,26.375,0,0,1-4.622,15.109,25.746,25.746,0,0,1-13.454,9.866,18.969,18.969,0,0,1,13.591,12.35,54.081,54.081,0,0,1,3.657,19.111v6.347a6,6,0,0,1-1.794,4.416,6,6,0,0,1-4.416,1.794,6.247,6.247,0,0,1-4.623-1.725,6.067,6.067,0,0,1-1.725-4.485v-4.14a61.629,61.629,0,0,0-1.242-12.764,20.526,20.526,0,0,0-5.933-10.487q-4.691-4.622-14.212-4.622H460.058V-76.09a5.889,5.889,0,0,1-1.863,4.416A6.233,6.233,0,0,1,453.711-69.881Zm31.323-50.089q11.867,0,18.835-4.691a15.057,15.057,0,0,0,6.968-13.247q0-8.279-6-12.695t-20.491-4.416H460.058v35.048Zm73.96,81.825a5.616,5.616,0,0,1-4.209-1.794,5.958,5.958,0,0,1-1.725-4.278,6.25,6.25,0,0,1,.414-2.208l8.969-23.043-25.941-63.2a7.063,7.063,0,0,1-.552-2.622,6.233,6.233,0,0,1,1.794-4.484,5.889,5.889,0,0,1,4.416-1.863,6.024,6.024,0,0,1,3.519,1.1,6.263,6.263,0,0,1,2.277,2.76l21.25,52.71,21.664-52.434q1.794-4.14,5.8-4.14a5.889,5.889,0,0,1,4.416,1.863,6.233,6.233,0,0,1,1.794,4.484,6.623,6.623,0,0,1-.414,2.346l-37.67,90.518Q562.857-38.144,558.993-38.144Zm85.551-31.047q-20.146,0-20.146-18.214V-130.18h-9.8a2.533,2.533,0,0,1-1.863-.759,2.533,2.533,0,0,1-.759-1.863,2.885,2.885,0,0,1,1.242-2.346L631.987-153.5a3.484,3.484,0,0,1,2.346-1.242,2.429,2.429,0,0,1,1.863.828,2.769,2.769,0,0,1,.759,1.932v11.039h15.592a5.234,5.234,0,0,1,3.864,1.518,5.234,5.234,0,0,1,1.518,3.864,5.3,5.3,0,0,1-1.518,3.795,5.115,5.115,0,0,1-3.864,1.587H636.954v41.671q0,5.381,2.553,6.83a12.858,12.858,0,0,0,6.416,1.449,19.122,19.122,0,0,0,5.519-.828q.552-.138,1.173-.276a7.518,7.518,0,0,1,1.587-.138,4.863,4.863,0,0,1,3.45,1.449A4.683,4.683,0,0,1,659.17-76.5,5.219,5.219,0,0,1,656-71.675,27,27,0,0,1,644.544-69.191Zm58.919,0q-16.834,0-26.286-9.59t-9.452-26.976a44.974,44.974,0,0,1,3.588-18.076,30.726,30.726,0,0,1,11.039-13.385q7.451-5.105,18.352-5.105a32.1,32.1,0,0,1,17.662,4.76,30.785,30.785,0,0,1,11.315,12.695,39.02,39.02,0,0,1,3.864,17.317,6.127,6.127,0,0,1-1.725,4.416,6.114,6.114,0,0,1-4.622,1.794H680.42q1.1,9.659,7.175,15.04t16.972,5.381a41.477,41.477,0,0,0,10.142-1.1A42.121,42.121,0,0,0,723.2-85.2a5.477,5.477,0,0,1,2.484-.552,5.538,5.538,0,0,1,3.864,1.518,5.011,5.011,0,0,1,1.656,3.864q0,3.036-3.588,5.105a49.95,49.95,0,0,1-10.625,4.553A49.812,49.812,0,0,1,703.463-69.191Zm17.662-42.361a22.108,22.108,0,0,0-3.519-11.315,19,19,0,0,0-7.658-6.692A21.546,21.546,0,0,0,700.7-131.7a21.546,21.546,0,0,0-9.245,2.139,18.528,18.528,0,0,0-7.589,6.692,22.524,22.524,0,0,0-3.45,11.315Z" transform="translate(943.886 1176.42)" fill="#fff" stroke="#fff" stroke-width="5"/>
    <path id="Path_23937" data-name="Path 23937" d="M758.341-67.725a6,6,0,0,1-4.416-1.794,6,6,0,0,1-1.794-4.416v-84.447a6.233,6.233,0,0,1,1.794-4.484,5.889,5.889,0,0,1,4.416-1.863h32.15q18.766,0,28.149,7.727t9.383,20.284a26.375,26.375,0,0,1-4.622,15.109,25.746,25.746,0,0,1-13.453,9.866,18.969,18.969,0,0,1,13.591,12.35A54.081,54.081,0,0,1,827.2-80.281v6.347a6,6,0,0,1-1.794,4.416,6,6,0,0,1-4.415,1.794,6.247,6.247,0,0,1-4.623-1.725,6.066,6.066,0,0,1-1.725-4.485v-4.14A61.627,61.627,0,0,0,813.4-90.837a20.525,20.525,0,0,0-5.933-10.487q-4.691-4.622-14.212-4.622H764.689v32.013a5.889,5.889,0,0,1-1.863,4.416A6.233,6.233,0,0,1,758.341-67.725Zm31.323-50.089q11.867,0,18.835-4.691a15.057,15.057,0,0,0,6.968-13.247q0-8.279-6-12.695t-20.491-4.416H764.689v35.048Z" transform="translate(639.255 1174.264)" fill="#fff" stroke="#fff" stroke-width="5"/>
    <g id="Group_6106" data-name="Group 6106" transform="translate(782.633 1006.792)">
      <g id="write-long-form" transform="translate(0 0)">
        <circle id="Ellipse_606" data-name="Ellipse 606" cx="65.888" cy="65.888" r="65.888" fill="#4ce6ff"/>
        <g id="Group_6100" data-name="Group 6100" transform="translate(23.311 29.938)" style="mix-blend-mode: multiply;isolation: isolate">
          <rect id="Rectangle_643" data-name="Rectangle 643" width="49.416" height="10.981" fill="#4de6ff"/>
        </g>
        <g id="Group_6101" data-name="Group 6101" transform="translate(23.311 51.901)" style="mix-blend-mode: multiply;isolation: isolate">
          <rect id="Rectangle_644" data-name="Rectangle 644" width="49.416" height="10.981" fill="#4de6ff"/>
        </g>
        <g id="Group_6102" data-name="Group 6102" transform="translate(23.311 73.864)" style="mix-blend-mode: multiply;isolation: isolate">
          <rect id="Rectangle_645" data-name="Rectangle 645" width="49.416" height="10.981" fill="#4de6ff"/>
        </g>
        <g id="Group_6103" data-name="Group 6103" transform="translate(23.311 95.826)" style="mix-blend-mode: multiply;isolation: isolate">
          <rect id="Rectangle_646" data-name="Rectangle 646" width="27.453" height="10.981" fill="#4de6ff"/>
        </g>
        <g id="Group_6104" data-name="Group 6104" transform="translate(23.311 7.967)" style="mix-blend-mode: multiply;isolation: isolate">
          <path id="Path_23934" data-name="Path 23934" d="M5,10.5c3.745-2.694,7.084-5.654,11.36-7.524l38.056.009V13.969H5Z" transform="translate(-5 -2.979)" fill="#4ce6ff" fill-rule="evenodd"/>
        </g>
      </g>
      <g id="Group_6105" data-name="Group 6105" transform="matrix(0.996, -0.087, 0.087, 0.996, 72.959, 13.066)">
        <path id="Path_23935" data-name="Path 23935" d="M18.62,70.028H0V51.408L46.453,4.955c5.531-5.532,14.514-7,20.046-1.468h0c5.553,5.553,4.086,14.575-1.467,20.128Z" transform="translate(7.547 0)" fill="#6631f8"/>
        <path id="Path_23933" data-name="Path 23933" d="M0,0,23.039,12.783,4.093,26.5C.926,28.671.42,26.274.42,25.215Z" transform="translate(7.547 51.397) rotate(16)" fill="#e333ff"/>
      </g>
    </g>
  </g>
</svg>
