<svg xmlns="http://www.w3.org/2000/svg" width="184.803" height="30.215" viewBox="0 0 184.803 30.215">
  <g id="Group_6083" data-name="Group 6083" transform="translate(-917.088 -363.744)">
    <path id="Path_23913" data-name="Path 23913" d="M11.088-116.593h4.364v2.268a7.133,7.133,0,0,1,2.337-1.89,6.3,6.3,0,0,1,2.955-.756v4.261a5.572,5.572,0,0,0-1.2-.1,5.921,5.921,0,0,0-2.337.533,3.811,3.811,0,0,0-1.753,1.323V-100H11.088Zm13.024,8.282a8.856,8.856,0,0,1,1.1-4.381,8.308,8.308,0,0,1,3.058-3.144,8.486,8.486,0,0,1,4.433-1.168,8.156,8.156,0,0,1,4.33,1.151,7.8,7.8,0,0,1,2.938,3.23,10.43,10.43,0,0,1,1.048,4.759v.962H28.682a4.213,4.213,0,0,0,1.478,2.749,4.863,4.863,0,0,0,3.3,1.1,7.008,7.008,0,0,0,2.423-.447,5.7,5.7,0,0,0,2.01-1.2l1.924,2.818a8.139,8.139,0,0,1-3.041,1.718,12.249,12.249,0,0,1-3.8.584,9.478,9.478,0,0,1-4.536-1.082,7.931,7.931,0,0,1-3.179-3.058A8.947,8.947,0,0,1,24.112-108.311Zm8.591-5.223a3.733,3.733,0,0,0-2.887,1.117,4.479,4.479,0,0,0-1.2,2.56h8.178a4.2,4.2,0,0,0-1.117-2.543A3.78,3.78,0,0,0,32.7-113.535Zm12.13,5.223a8.846,8.846,0,0,1,1.134-4.484,8.113,8.113,0,0,1,3.127-3.093,9.119,9.119,0,0,1,4.536-1.117,8.513,8.513,0,0,1,4,.859,7.151,7.151,0,0,1,2.56,2.165l-2.852,2.646a4.013,4.013,0,0,0-3.505-1.787,4.273,4.273,0,0,0-3.247,1.323,4.861,4.861,0,0,0-1.254,3.488,4.922,4.922,0,0,0,1.254,3.505,4.246,4.246,0,0,0,3.247,1.34,4.26,4.26,0,0,0,1.993-.464,4.277,4.277,0,0,0,1.512-1.323l2.852,2.646a7.151,7.151,0,0,1-2.56,2.165,8.513,8.513,0,0,1-4,.859,9.119,9.119,0,0,1-4.536-1.117,8.113,8.113,0,0,1-3.127-3.093A8.914,8.914,0,0,1,44.833-108.311Zm19.931-8.282h4.364v2.268a7.133,7.133,0,0,1,2.337-1.89,6.3,6.3,0,0,1,2.955-.756v4.261a5.572,5.572,0,0,0-1.2-.1,5.921,5.921,0,0,0-2.337.533,3.811,3.811,0,0,0-1.753,1.323V-100H64.764Zm25.291,14.5A7.869,7.869,0,0,1,87.6-100.3a7.688,7.688,0,0,1-3.385.722,5.377,5.377,0,0,1-4.021-1.375,5.281,5.281,0,0,1-1.34-3.849v-11.787h4.364v10.068a3.022,3.022,0,0,0,.79,2.354,3.3,3.3,0,0,0,2.268.7,4.409,4.409,0,0,0,2.165-.55,5.212,5.212,0,0,0,1.615-1.34v-11.237h4.364V-100H90.055Zm12.577-16.941a2.511,2.511,0,0,1-1.838-.773,2.511,2.511,0,0,1-.773-1.838,2.511,2.511,0,0,1,.773-1.838,2.511,2.511,0,0,1,1.838-.773,2.523,2.523,0,0,1,1.856.756,2.523,2.523,0,0,1,.756,1.856,2.54,2.54,0,0,1-.756,1.838A2.494,2.494,0,0,1,102.632-119.033Zm-2.165,2.44h4.364V-100h-4.364Zm15.979,17.01a4.833,4.833,0,0,1-3.505-1.168,4.482,4.482,0,0,1-1.2-3.368v-8.66h-2.749v-3.814h2.749v-4.536h4.4v4.536H119.5v3.814h-3.368v7.491a2.024,2.024,0,0,0,.412,1.306,1.337,1.337,0,0,0,1.1.515,2.809,2.809,0,0,0,.893-.137,1.566,1.566,0,0,0,.619-.344l.928,3.3A5.361,5.361,0,0,1,116.446-99.583Z" transform="translate(906 488)" fill="#fff"/>
    <path id="Path_23915" data-name="Path 23915" d="M20.069-102.684H16.5v8.213h-4.88v-22.92H22.337a8.487,8.487,0,0,1,4.089.945,6.516,6.516,0,0,1,2.68,2.629A7.771,7.771,0,0,1,30.035-110a6.9,6.9,0,0,1-1.46,4.57,6.409,6.409,0,0,1-3.557,2.234l5.154,8.728h-5.6Zm4.983-7.354a2.922,2.922,0,0,0-.979-2.285,3.548,3.548,0,0,0-2.457-.876H16.5v6.323h5.12a3.548,3.548,0,0,0,2.457-.876A2.922,2.922,0,0,0,25.052-110.038Z" transform="translate(1018.232 482.476)" fill="#0037fd"/>
    <path id="Path_23914" data-name="Path 23914" d="M1.384-84.529a3.348,3.348,0,0,0,1.375.275A3.24,3.24,0,0,0,4.2-84.529a1.9,1.9,0,0,0,.859-.928l.619-1.409L-1.056-103.7H3.617l4.33,11.546,4.33-11.546h4.708l-7.8,19.312a5.756,5.756,0,0,1-2.405,3.076,8.3,8.3,0,0,1-3.883.945,11.029,11.029,0,0,1-1.134-.069,6.8,6.8,0,0,1-1.031-.172Zm24.845-2.165a4.833,4.833,0,0,1-3.505-1.168,4.482,4.482,0,0,1-1.2-3.368v-8.66H18.772V-103.7h2.749v-4.536h4.4v4.536h3.368v3.814H25.919V-92.4a2.024,2.024,0,0,0,.412,1.306,1.337,1.337,0,0,0,1.1.515,2.809,2.809,0,0,0,.893-.137,1.566,1.566,0,0,0,.619-.344l.928,3.3A5.361,5.361,0,0,1,26.228-86.694Zm6.7-8.728a8.856,8.856,0,0,1,1.1-4.381,8.307,8.307,0,0,1,3.058-3.144,8.486,8.486,0,0,1,4.433-1.168,8.156,8.156,0,0,1,4.33,1.151,7.8,7.8,0,0,1,2.938,3.23,10.43,10.43,0,0,1,1.048,4.759v.962H37.5a4.213,4.213,0,0,0,1.478,2.749,4.863,4.863,0,0,0,3.3,1.1,7.008,7.008,0,0,0,2.423-.447,5.7,5.7,0,0,0,2.01-1.2L48.633-89a8.139,8.139,0,0,1-3.041,1.718,12.249,12.249,0,0,1-3.8.584,9.478,9.478,0,0,1-4.536-1.082,7.931,7.931,0,0,1-3.179-3.058A8.947,8.947,0,0,1,32.929-95.422Zm8.591-5.223a3.733,3.733,0,0,0-2.887,1.117,4.479,4.479,0,0,0-1.2,2.56h8.178a4.2,4.2,0,0,0-1.117-2.543A3.78,3.78,0,0,0,41.52-100.646Z" transform="translate(1052.055 474.33)" fill="#fff"/>
  </g>
</svg>
