<svg xmlns="http://www.w3.org/2000/svg" width="1946.984" height="300.069" viewBox="0 0 1946.984 300.069">
  <g id="Group_6109" data-name="Group 6109" transform="translate(-472.758 -929.965)">
    <path id="Path_23936" data-name="Path 23936" d="M32.548,54.085a13.718,13.718,0,0,1-13.9-13.9V-92.368a13.957,13.957,0,0,1,4.017-10.042,13.187,13.187,0,0,1,9.887-4.171,13.689,13.689,0,0,1,10.042,4.171,13.689,13.689,0,0,1,4.171,10.042v13.286q21.628-29.043,48.509-29.043h1.545a12.932,12.932,0,0,1,9.733,4.017,13.719,13.719,0,0,1,3.862,9.887,12.442,12.442,0,0,1-4.017,9.578,14.446,14.446,0,0,1-10.2,3.708H94.651a52.7,52.7,0,0,0-27.19,7.261,62.616,62.616,0,0,0-20.7,19.929V40.182a13.186,13.186,0,0,1-4.171,9.887A13.957,13.957,0,0,1,32.548,54.085ZM202.792,55.63q-37.695,0-58.859-21.474t-21.165-60.4A100.7,100.7,0,0,1,130.8-66.723a68.8,68.8,0,0,1,24.718-29.97q16.685-11.432,41.093-11.432,22.864,0,39.549,10.66A68.933,68.933,0,0,1,261.5-69.04a87.374,87.374,0,0,1,8.651,38.776,13.719,13.719,0,0,1-3.862,9.887q-3.862,4.017-10.351,4.017H151.193q2.472,21.628,16.067,33.678t38,12.05a92.873,92.873,0,0,0,22.71-2.472,94.315,94.315,0,0,0,19-7.106,12.264,12.264,0,0,1,5.561-1.236,12.4,12.4,0,0,1,8.651,3.4A11.22,11.22,0,0,1,264.9,30.6q0,6.8-8.033,11.432a111.847,111.847,0,0,1-23.791,10.2Q221.33,55.63,202.792,55.63Zm39.549-94.855q-.927-15.14-7.879-25.336a42.533,42.533,0,0,0-17.148-14.985,48.246,48.246,0,0,0-20.7-4.789,48.246,48.246,0,0,0-20.7,4.789A41.487,41.487,0,0,0,158.918-64.56q-6.8,10.2-7.724,25.336Zm137.8,94.855a87.11,87.11,0,0,1-41.093-9.887,76.1,76.1,0,0,1-30.125-28.426Q297.647-1.221,297.647-26.248t11.277-43.565a76.1,76.1,0,0,1,30.125-28.426,87.11,87.11,0,0,1,41.093-9.887q16.376,0,28.271,4.171a106.809,106.809,0,0,1,22.092,10.66q6.179,4.017,6.179,10.814a12.292,12.292,0,0,1-3.553,8.5,10.844,10.844,0,0,1-8.188,3.862,14.086,14.086,0,0,1-6.8-1.854,117.661,117.661,0,0,0-17.457-7.57,60.245,60.245,0,0,0-18.075-2.317q-26.572,0-41.711,15.294t-15.14,40.321q0,25.027,15.14,40.321t41.711,15.294a60.245,60.245,0,0,0,18.075-2.317,117.662,117.662,0,0,0,17.457-7.57,14.085,14.085,0,0,1,6.8-1.854,10.844,10.844,0,0,1,8.188,3.862,12.292,12.292,0,0,1,3.553,8.5q0,6.8-6.179,10.814a106.809,106.809,0,0,1-22.092,10.66Q396.518,55.63,380.143,55.63Zm105.669-1.545a13.718,13.718,0,0,1-13.9-13.9V-92.368a13.957,13.957,0,0,1,4.017-10.042,13.186,13.186,0,0,1,9.887-4.171,13.688,13.688,0,0,1,10.042,4.171,13.689,13.689,0,0,1,4.171,10.042v13.286q21.628-29.043,48.509-29.043h1.545a12.932,12.932,0,0,1,9.733,4.017,13.719,13.719,0,0,1,3.862,9.887,12.442,12.442,0,0,1-4.017,9.578,14.446,14.446,0,0,1-10.2,3.708h-1.545a52.7,52.7,0,0,0-27.19,7.261,62.616,62.616,0,0,0-20.7,19.929V40.182a13.187,13.187,0,0,1-4.171,9.887A13.957,13.957,0,0,1,485.811,54.085ZM644.006,55.63q-16.994,0-29.507-8.033A52.231,52.231,0,0,1,595.342,25.66,70.031,70.031,0,0,1,588.7-4.928V-92.677a13.186,13.186,0,0,1,4.171-9.887,13.957,13.957,0,0,1,10.042-4.017,13.438,13.438,0,0,1,9.887,4.017,13.438,13.438,0,0,1,4.017,9.887V-8.018q0,37.695,33.987,37.695a49.169,49.169,0,0,0,27.653-8.033A100.092,100.092,0,0,0,701.474.015V-92.677a13.186,13.186,0,0,1,4.171-9.887,13.957,13.957,0,0,1,10.042-4.017,13.437,13.437,0,0,1,9.887,4.017,13.437,13.437,0,0,1,4.017,9.887V39.873a13.957,13.957,0,0,1-4.017,10.042,13.186,13.186,0,0,1-9.887,4.171,14.241,14.241,0,0,1-14.213-14.213V27.2a102.7,102.7,0,0,1-25.336,20.7Q662.544,55.63,644.006,55.63Zm147.689-192.8a15.169,15.169,0,0,1-11.123-4.635,15.169,15.169,0,0,1-4.635-11.123v-1.236a15.169,15.169,0,0,1,4.635-11.123,15.169,15.169,0,0,1,11.123-4.635h1.854a15.17,15.17,0,0,1,11.123,4.635,15.17,15.17,0,0,1,4.635,11.123v1.236a15.17,15.17,0,0,1-4.635,11.123,15.17,15.17,0,0,1-11.123,4.635Zm.618,191.254a13.718,13.718,0,0,1-13.9-13.9V-92.368a13.957,13.957,0,0,1,4.017-10.042,13.187,13.187,0,0,1,9.887-4.171,13.815,13.815,0,0,1,10.2,4.017,13.815,13.815,0,0,1,4.017,10.2V40.182a13.187,13.187,0,0,1-4.171,9.887A13.957,13.957,0,0,1,792.313,54.085Zm117.41,1.545q-45.11,0-45.11-40.784V-80.936H842.675a5.671,5.671,0,0,1-4.171-1.7,5.671,5.671,0,0,1-1.7-4.171,6.461,6.461,0,0,1,2.781-5.253l42.02-41.093q2.781-2.781,5.253-2.781a5.439,5.439,0,0,1,4.171,1.854,6.2,6.2,0,0,1,1.7,4.326v24.718h34.914a11.719,11.719,0,0,1,8.651,3.4,11.719,11.719,0,0,1,3.4,8.651,11.863,11.863,0,0,1-3.4,8.5,11.453,11.453,0,0,1-8.651,3.553H892.729v93.31q0,12.05,5.716,15.294t14.367,3.244a42.818,42.818,0,0,0,12.359-1.854q1.236-.309,2.626-.618a16.836,16.836,0,0,1,3.553-.309,10.889,10.889,0,0,1,7.724,3.244,10.486,10.486,0,0,1,3.4,7.879q0,7.106-7.106,10.814A60.464,60.464,0,0,1,909.722,55.63Zm83.114-1.545a13.718,13.718,0,0,1-13.9-13.9V-148.91a13.957,13.957,0,0,1,4.017-10.042,13.187,13.187,0,0,1,9.887-4.171h71.991q42.02,0,63.031,17.3t21.01,45.419a59.058,59.058,0,0,1-10.351,33.833q-10.351,15.294-30.125,22.092,22.246,5.87,30.434,27.653a121.1,121.1,0,0,1,8.188,42.793V40.182a13.718,13.718,0,0,1-13.9,13.9q-6.489,0-10.351-3.862a13.584,13.584,0,0,1-3.862-10.042V30.913a138,138,0,0,0-2.781-28.58,45.96,45.96,0,0,0-13.286-23.482q-10.5-10.351-31.824-10.351h-63.957V40.182a13.186,13.186,0,0,1-4.171,9.887A13.957,13.957,0,0,1,992.836,54.085Zm70.137-112.157q26.572,0,42.175-10.505t15.6-29.661q0-18.538-13.44-28.426t-45.883-9.887h-54.379v78.479Zm165.609,183.221a12.576,12.576,0,0,1-9.424-4.017,13.341,13.341,0,0,1-3.862-9.578,14,14,0,0,1,.927-4.944l20.083-51.6L1178.22-86.5a15.818,15.818,0,0,1-1.236-5.87A13.957,13.957,0,0,1,1181-102.409a13.186,13.186,0,0,1,9.887-4.171,13.489,13.489,0,0,1,7.879,2.472,14.026,14.026,0,0,1,5.1,6.179L1251.447,20.1l48.509-117.41q4.017-9.269,12.977-9.269a13.187,13.187,0,0,1,9.887,4.171,13.957,13.957,0,0,1,4.017,10.042,14.833,14.833,0,0,1-.927,5.253l-84.35,202.686Q1237.234,125.149,1228.583,125.149ZM1420.146,55.63q-45.11,0-45.11-40.784V-80.936H1353.1a5.671,5.671,0,0,1-4.171-1.7,5.671,5.671,0,0,1-1.7-4.171,6.461,6.461,0,0,1,2.781-5.253l42.02-41.093q2.781-2.781,5.253-2.781a5.44,5.44,0,0,1,4.171,1.854,6.2,6.2,0,0,1,1.7,4.326v24.718h34.914a11.719,11.719,0,0,1,8.651,3.4,11.719,11.719,0,0,1,3.4,8.651,11.862,11.862,0,0,1-3.4,8.5,11.453,11.453,0,0,1-8.651,3.553h-34.914v93.31q0,12.05,5.716,15.294t14.367,3.244a42.818,42.818,0,0,0,12.359-1.854q1.236-.309,2.626-.618a16.836,16.836,0,0,1,3.553-.309,10.889,10.889,0,0,1,7.724,3.244,10.486,10.486,0,0,1,3.4,7.879q0,7.106-7.106,10.814A60.464,60.464,0,0,1,1420.146,55.63Zm131.931,0q-37.695,0-58.859-21.474t-21.165-60.4a100.7,100.7,0,0,1,8.033-40.475,68.8,68.8,0,0,1,24.718-29.97q16.684-11.432,41.094-11.432,22.864,0,39.548,10.66a68.934,68.934,0,0,1,25.336,28.426,87.373,87.373,0,0,1,8.651,38.776,13.718,13.718,0,0,1-3.862,9.887q-3.862,4.017-10.351,4.017H1500.479q2.472,21.628,16.067,33.678t38,12.05a92.874,92.874,0,0,0,22.71-2.472,94.316,94.316,0,0,0,19-7.106,12.264,12.264,0,0,1,5.562-1.236,12.4,12.4,0,0,1,8.651,3.4,11.22,11.22,0,0,1,3.708,8.651q0,6.8-8.033,11.432a111.845,111.845,0,0,1-23.791,10.2Q1570.616,55.63,1552.077,55.63Zm39.549-94.855q-.927-15.14-7.879-25.336A42.532,42.532,0,0,0,1566.6-79.545a48.246,48.246,0,0,0-20.7-4.789,48.246,48.246,0,0,0-20.7,4.789A41.488,41.488,0,0,0,1508.2-64.56q-6.8,10.2-7.724,25.336Z" transform="translate(797.809 1102.385)" fill="#231842" stroke="#231842" stroke-width="5"/>
    <path id="Path_23937" data-name="Path 23937" d="M766.036,52.48a13.718,13.718,0,0,1-13.9-13.9V-150.515a13.957,13.957,0,0,1,4.017-10.042,13.187,13.187,0,0,1,9.887-4.171h71.991q42.02,0,63.031,17.3t21.01,45.419a59.058,59.058,0,0,1-10.351,33.833Q901.366-52.88,881.592-46.082q22.246,5.87,30.434,27.653a121.1,121.1,0,0,1,8.188,42.793V38.576a13.718,13.718,0,0,1-13.9,13.9q-6.489,0-10.351-3.862A13.584,13.584,0,0,1,892.1,38.576V29.307A138,138,0,0,0,889.316.727,45.96,45.96,0,0,0,876.03-22.755q-10.5-10.351-31.824-10.351H780.249V38.576a13.186,13.186,0,0,1-4.171,9.887A13.957,13.957,0,0,1,766.036,52.48ZM836.173-59.677q26.572,0,42.175-10.505t15.6-29.661q0-18.538-13.44-28.426t-45.883-9.887H780.249v78.479Z" transform="translate(1024.609 1103.767)" fill="#6631f8" stroke="#6631f8" stroke-width="5"/>
    <g id="logo-icon-1" transform="translate(472.758 942.465)">
      <path id="Path_23938" data-name="Path 23938" d="M104.942,272.9H72.475A53.475,53.475,0,0,1,19,219.426V73.975A53.474,53.474,0,0,1,72.475,20.5h32.468A53.388,53.388,0,0,0,51.62,73.953v145.5A53.388,53.388,0,0,0,104.942,272.9Zm82.91-149.322-7.079-6.544-48.637,48.917a66.651,66.651,0,0,0-18.228,34.065l-5.605,30.1,29.85-5.86c1.022-.2,2.035-.441,3.043-.692l8.006-43.618c2.58-12.906,8.388-25.828,17.694-35.135Z" transform="translate(-8.84 -9.305)" fill="#cee1f2"/>
      <path id="Path_23939" data-name="Path 23939" d="M99.463,231.511a10.695,10.695,0,0,1-10.514-12.653l5.6-30.1.027-.139a77.1,77.1,0,0,1,21.155-39.531l48.615-48.9a39.037,39.037,0,1,1,55.227,55.185l-48.615,48.9a77.125,77.125,0,0,1-39.553,21.175l-29.886,5.867a10.713,10.713,0,0,1-2.06.2Zm16.106-38.769-2.708,14.545,14.392-2.826a55.745,55.745,0,0,0,28.562-15.3l48.615-48.9a17.647,17.647,0,0,0,.022-24.978h0a17.645,17.645,0,0,0-24.956,0l-48.615,48.9a55.8,55.8,0,0,0-15.312,28.555Zm94.587,81.548H64.17A64.242,64.242,0,0,1,0,210.121V64.67A64.242,64.242,0,0,1,64.17.5H210.156a64.242,64.242,0,0,1,64.17,64.17V210.121A64.242,64.242,0,0,1,210.156,274.29ZM64.17,21.89A42.828,42.828,0,0,0,21.39,64.67V210.121A42.828,42.828,0,0,0,64.17,252.9H210.156a42.828,42.828,0,0,0,42.78-42.78V64.67a42.828,42.828,0,0,0-42.78-42.78Z" fill="#6631f8"/>
      <path id="Path_23940" data-name="Path 23940" d="M108.876,146.809H90.695a10.695,10.695,0,1,1,0-21.39h18.181a16.061,16.061,0,0,0,16.042-16.042V91.195a10.695,10.695,0,0,1,21.39,0v18.181A37.475,37.475,0,0,1,108.876,146.809Z" transform="translate(-37.22 -37.22)" fill="#df5cf0"/>
    </g>
  </g>
</svg>
