<svg xmlns="http://www.w3.org/2000/svg" width="922.903" height="140.547" viewBox="0 0 922.903 140.547">
  <g id="Group_6112" data-name="Group 6112" transform="translate(-782.633 -1004)">
    <path id="Path_23936" data-name="Path 23936" d="M25.031-67.018a6.173,6.173,0,0,1-4.542-1.845,6.173,6.173,0,0,1-1.845-4.542v-60.889a6.411,6.411,0,0,1,1.845-4.613,6.057,6.057,0,0,1,4.542-1.916,6.288,6.288,0,0,1,4.613,1.916,6.288,6.288,0,0,1,1.916,4.613v6.1q9.935-13.342,22.284-13.342h.71a5.941,5.941,0,0,1,4.471,1.845,6.3,6.3,0,0,1,1.774,4.542,5.715,5.715,0,0,1-1.845,4.4,6.636,6.636,0,0,1-4.684,1.7h-.71a24.208,24.208,0,0,0-12.49,3.335,28.764,28.764,0,0,0-9.51,9.155v43.148a6.057,6.057,0,0,1-1.916,4.542A6.411,6.411,0,0,1,25.031-67.018Zm78.205.71q-17.316,0-27.038-9.864t-9.722-27.748a46.26,46.26,0,0,1,3.69-18.593,31.6,31.6,0,0,1,11.355-13.768q7.664-5.252,18.877-5.252a33.017,33.017,0,0,1,18.167,4.9A31.666,31.666,0,0,1,130.2-123.579a40.137,40.137,0,0,1,3.974,17.813,6.3,6.3,0,0,1-1.774,4.542,6.289,6.289,0,0,1-4.755,1.845H79.533q1.135,9.935,7.381,15.471t17.458,5.535A42.663,42.663,0,0,0,114.8-79.508a43.325,43.325,0,0,0,8.729-3.264,5.634,5.634,0,0,1,2.555-.568,5.7,5.7,0,0,1,3.974,1.561,5.154,5.154,0,0,1,1.7,3.974q0,3.123-3.69,5.252a51.379,51.379,0,0,1-10.929,4.684A51.239,51.239,0,0,1,103.236-66.309ZM121.4-109.882a22.74,22.74,0,0,0-3.619-11.639,19.538,19.538,0,0,0-7.877-6.884,22.163,22.163,0,0,0-9.51-2.2,22.163,22.163,0,0,0-9.51,2.2,19.058,19.058,0,0,0-7.806,6.884,23.168,23.168,0,0,0-3.548,11.639Zm63.3,43.574a40.016,40.016,0,0,1-18.877-4.542,34.96,34.96,0,0,1-13.839-13.058,37.749,37.749,0,0,1-5.181-20.013,37.749,37.749,0,0,1,5.181-20.013,34.96,34.96,0,0,1,13.839-13.058,40.016,40.016,0,0,1,18.877-4.542,39.339,39.339,0,0,1,12.987,1.916,49.064,49.064,0,0,1,10.148,4.9,5.667,5.667,0,0,1,2.839,4.968,5.647,5.647,0,0,1-1.632,3.9,4.981,4.981,0,0,1-3.761,1.774,6.471,6.471,0,0,1-3.123-.852,54.049,54.049,0,0,0-8.019-3.477,27.675,27.675,0,0,0-8.3-1.065q-12.206,0-19.161,7.026t-6.955,18.522q0,11.5,6.955,18.522t19.161,7.026a27.675,27.675,0,0,0,8.3-1.064,54.051,54.051,0,0,0,8.019-3.477,6.47,6.47,0,0,1,3.123-.852,4.981,4.981,0,0,1,3.761,1.774,5.647,5.647,0,0,1,1.632,3.9,5.667,5.667,0,0,1-2.839,4.968,49.065,49.065,0,0,1-10.148,4.9A39.339,39.339,0,0,1,184.706-66.309Zm48.541-.71a6.173,6.173,0,0,1-4.542-1.845,6.173,6.173,0,0,1-1.845-4.542v-60.889a6.412,6.412,0,0,1,1.845-4.613,6.057,6.057,0,0,1,4.542-1.916,6.288,6.288,0,0,1,4.613,1.916,6.288,6.288,0,0,1,1.916,4.613v6.1q9.935-13.342,22.284-13.342h.71a5.941,5.941,0,0,1,4.471,1.845,6.3,6.3,0,0,1,1.774,4.542,5.715,5.715,0,0,1-1.845,4.4,6.636,6.636,0,0,1-4.684,1.7h-.71a24.208,24.208,0,0,0-12.49,3.335,28.764,28.764,0,0,0-9.51,9.155v43.148a6.057,6.057,0,0,1-1.916,4.542A6.411,6.411,0,0,1,233.247-67.018Zm72.67.71A24.542,24.542,0,0,1,292.363-70a23.993,23.993,0,0,1-8.8-10.077,32.17,32.17,0,0,1-3.052-14.051v-40.309a6.057,6.057,0,0,1,1.916-4.542,6.411,6.411,0,0,1,4.613-1.845,6.173,6.173,0,0,1,4.542,1.845,6.173,6.173,0,0,1,1.845,4.542v38.89q0,17.316,15.613,17.316a22.587,22.587,0,0,0,12.7-3.69,45.98,45.98,0,0,0,10.574-9.935v-42.58a6.057,6.057,0,0,1,1.916-4.542,6.411,6.411,0,0,1,4.613-1.845,6.173,6.173,0,0,1,4.542,1.845,6.173,6.173,0,0,1,1.845,4.542v60.889a6.411,6.411,0,0,1-1.845,4.613,6.057,6.057,0,0,1-4.542,1.916,6.288,6.288,0,0,1-4.613-1.916,6.288,6.288,0,0,1-1.916-4.613v-5.819a47.179,47.179,0,0,1-11.639,9.51A29.389,29.389,0,0,1,305.917-66.309Zm67.844-88.566a6.968,6.968,0,0,1-5.11-2.129,6.968,6.968,0,0,1-2.129-5.11v-.568a6.968,6.968,0,0,1,2.129-5.11,6.968,6.968,0,0,1,5.11-2.129h.852a6.969,6.969,0,0,1,5.11,2.129,6.968,6.968,0,0,1,2.129,5.11v.568a6.968,6.968,0,0,1-2.129,5.11,6.968,6.968,0,0,1-5.11,2.129Zm.284,87.857a6.173,6.173,0,0,1-4.542-1.845,6.173,6.173,0,0,1-1.845-4.542v-60.889a6.411,6.411,0,0,1,1.845-4.613,6.058,6.058,0,0,1,4.542-1.916,6.346,6.346,0,0,1,4.684,1.845,6.346,6.346,0,0,1,1.845,4.684v60.889a6.058,6.058,0,0,1-1.916,4.542A6.412,6.412,0,0,1,374.045-67.018Zm53.935.71q-20.722,0-20.722-18.735v-44H397.181a2.605,2.605,0,0,1-1.916-.781,2.605,2.605,0,0,1-.781-1.916,2.968,2.968,0,0,1,1.277-2.413l19.3-18.877a3.583,3.583,0,0,1,2.413-1.277,2.5,2.5,0,0,1,1.916.852,2.848,2.848,0,0,1,.781,1.987v11.355h16.038a5.384,5.384,0,0,1,3.974,1.561,5.384,5.384,0,0,1,1.561,3.974,5.449,5.449,0,0,1-1.561,3.9,5.261,5.261,0,0,1-3.974,1.632H420.174v42.864q0,5.535,2.626,7.026a13.226,13.226,0,0,0,6.6,1.49,19.67,19.67,0,0,0,5.677-.852q.568-.142,1.206-.284a7.735,7.735,0,0,1,1.632-.142,5,5,0,0,1,3.548,1.49,4.817,4.817,0,0,1,1.561,3.619,5.369,5.369,0,0,1-3.264,4.968A27.776,27.776,0,0,1,427.98-66.309Zm38.18-.71a6.173,6.173,0,0,1-4.542-1.845,6.173,6.173,0,0,1-1.845-4.542v-86.863a6.411,6.411,0,0,1,1.845-4.613,6.058,6.058,0,0,1,4.542-1.916h33.07q19.3,0,28.954,7.948t9.651,20.864a27.13,27.13,0,0,1-4.755,15.542A26.483,26.483,0,0,1,519.243-112.3a19.512,19.512,0,0,1,13.98,12.7,55.628,55.628,0,0,1,3.761,19.658v6.529a6.173,6.173,0,0,1-1.845,4.542,6.173,6.173,0,0,1-4.542,1.845,6.426,6.426,0,0,1-4.755-1.774,6.24,6.24,0,0,1-1.774-4.613v-4.258a63.391,63.391,0,0,0-1.277-13.129,21.113,21.113,0,0,0-6.1-10.787q-4.826-4.755-14.619-4.755h-29.38v32.929a6.057,6.057,0,0,1-1.916,4.542A6.411,6.411,0,0,1,466.16-67.018Zm32.219-51.522q12.206,0,19.374-4.826a15.488,15.488,0,0,0,7.168-13.626q0-8.516-6.174-13.058t-21.077-4.542h-24.98v36.051Zm76.076,84.167a5.777,5.777,0,0,1-4.329-1.845,6.128,6.128,0,0,1-1.774-4.4,6.428,6.428,0,0,1,.426-2.271L578-66.592,551.32-131.6a7.267,7.267,0,0,1-.568-2.7,6.411,6.411,0,0,1,1.845-4.613,6.058,6.058,0,0,1,4.542-1.916,6.2,6.2,0,0,1,3.619,1.135,6.443,6.443,0,0,1,2.342,2.839l21.858,54.219,22.284-53.935q1.845-4.258,5.961-4.258a6.058,6.058,0,0,1,4.542,1.916,6.412,6.412,0,0,1,1.845,4.613,6.813,6.813,0,0,1-.426,2.413L580.417-38.773Q578.43-34.374,574.455-34.374Zm88-31.935q-20.722,0-20.722-18.735v-44H631.655a2.605,2.605,0,0,1-1.916-.781,2.6,2.6,0,0,1-.781-1.916,2.968,2.968,0,0,1,1.277-2.413l19.3-18.877a3.583,3.583,0,0,1,2.413-1.277,2.5,2.5,0,0,1,1.916.852,2.848,2.848,0,0,1,.781,1.987v11.355h16.039a5.383,5.383,0,0,1,3.974,1.561,5.383,5.383,0,0,1,1.561,3.974,5.449,5.449,0,0,1-1.561,3.9,5.261,5.261,0,0,1-3.974,1.632H654.648v42.864q0,5.535,2.626,7.026a13.226,13.226,0,0,0,6.6,1.49,19.669,19.669,0,0,0,5.677-.852q.568-.142,1.206-.284a7.735,7.735,0,0,1,1.632-.142,5,5,0,0,1,3.548,1.49,4.817,4.817,0,0,1,1.561,3.619,5.369,5.369,0,0,1-3.264,4.968A27.776,27.776,0,0,1,662.454-66.309Zm60.606,0q-17.316,0-27.038-9.864T686.3-103.921a46.26,46.26,0,0,1,3.69-18.593,31.605,31.605,0,0,1,11.355-13.768q7.664-5.252,18.877-5.252a33.017,33.017,0,0,1,18.167,4.9,31.666,31.666,0,0,1,11.639,13.058A40.137,40.137,0,0,1,754-105.766a6.3,6.3,0,0,1-1.774,4.542,6.289,6.289,0,0,1-4.755,1.845H699.357q1.135,9.935,7.38,15.471T724.2-78.373a42.664,42.664,0,0,0,10.432-1.135,43.327,43.327,0,0,0,8.729-3.264,5.634,5.634,0,0,1,2.555-.568,5.7,5.7,0,0,1,3.974,1.561,5.154,5.154,0,0,1,1.7,3.974q0,3.123-3.69,5.252a51.378,51.378,0,0,1-10.929,4.684A51.238,51.238,0,0,1,723.06-66.309Zm18.168-43.574a22.74,22.74,0,0,0-3.619-11.639,19.538,19.538,0,0,0-7.877-6.884,22.163,22.163,0,0,0-9.509-2.2,22.163,22.163,0,0,0-9.51,2.2,19.058,19.058,0,0,0-7.806,6.884,23.169,23.169,0,0,0-3.548,11.639Z" transform="translate(949.034 1176.42)" fill="#231842" stroke="#231842" stroke-width="5"/>
    <g id="Group_6106" data-name="Group 6106" transform="translate(782.633 1006.801)">
      <g id="write-long-form" transform="translate(0 0)">
        <circle id="Ellipse_606" data-name="Ellipse 606" cx="67.773" cy="67.773" r="67.773" fill="#4ce6ff"/>
        <g id="Group_6100" data-name="Group 6100" transform="translate(23.978 30.795)" style="mix-blend-mode: multiply;isolation: isolate">
          <rect id="Rectangle_643" data-name="Rectangle 643" width="50.83" height="11.296" fill="#4de6ff"/>
        </g>
        <g id="Group_6101" data-name="Group 6101" transform="translate(23.978 53.386)" style="mix-blend-mode: multiply;isolation: isolate">
          <rect id="Rectangle_644" data-name="Rectangle 644" width="50.83" height="11.296" fill="#4de6ff"/>
        </g>
        <g id="Group_6102" data-name="Group 6102" transform="translate(23.978 75.977)" style="mix-blend-mode: multiply;isolation: isolate">
          <rect id="Rectangle_645" data-name="Rectangle 645" width="50.83" height="11.296" fill="#4de6ff"/>
        </g>
        <g id="Group_6103" data-name="Group 6103" transform="translate(23.978 98.568)" style="mix-blend-mode: multiply;isolation: isolate">
          <rect id="Rectangle_646" data-name="Rectangle 646" width="28.239" height="11.296" fill="#4de6ff"/>
        </g>
        <g id="Group_6104" data-name="Group 6104" transform="translate(23.978 8.195)" style="mix-blend-mode: multiply;isolation: isolate">
          <path id="Path_23934" data-name="Path 23934" d="M5,10.718C8.852,7.947,12.287,4.9,16.685,2.979l39.145.009v11.3H5Z" transform="translate(-5 -2.979)" fill="#4ce6ff" fill-rule="evenodd"/>
        </g>
      </g>
      <g id="Group_6105" data-name="Group 6105" transform="matrix(0.996, -0.087, 0.087, 0.996, 75.047, 13.44)">
        <path id="Path_23935" data-name="Path 23935" d="M19.153,72.032H0V52.879L47.783,5.1c5.69-5.69,14.929-7.2,20.619-1.51h0c5.712,5.712,4.2,14.992-1.509,20.7Z" transform="translate(7.763 0)" fill="#6631f8"/>
        <path id="Path_23933" data-name="Path 23933" d="M0,0,23.7,13.149,4.21,27.263C.953,29.491.432,27.026.432,25.936Z" transform="translate(7.763 52.868) rotate(16)" fill="#e333ff"/>
      </g>
    </g>
  </g>
</svg>
