<svg xmlns="http://www.w3.org/2000/svg" width="946.512" height="154.752" viewBox="0 0 946.512 154.752">
  <g id="Group_6083" data-name="Group 6083" transform="translate(-917.088 -363.744)">
    <path id="Path_23913" data-name="Path 23913" d="M11.088-85.008H33.44v11.616a36.535,36.535,0,0,1,11.968-9.68,32.263,32.263,0,0,1,15.136-3.872V-65.12a28.54,28.54,0,0,0-6.16-.528A30.326,30.326,0,0,0,42.416-62.92q-6.336,2.728-8.976,6.776V0H11.088Zm66.7,42.416a45.358,45.358,0,0,1,5.632-22.44,42.549,42.549,0,0,1,15.664-16.1,43.462,43.462,0,0,1,22.7-5.984,41.773,41.773,0,0,1,22.176,5.9A39.943,39.943,0,0,1,159.016-64.68,53.422,53.422,0,0,1,164.384-40.3v4.928H101.2a21.579,21.579,0,0,0,7.568,14.08q6.512,5.632,16.9,5.632a35.893,35.893,0,0,0,12.408-2.288,29.175,29.175,0,0,0,10.3-6.16L158.224-9.68a41.685,41.685,0,0,1-15.576,8.8A62.737,62.737,0,0,1,123.2,2.112,48.542,48.542,0,0,1,99.968-3.432,40.619,40.619,0,0,1,83.688-19.1Q77.792-29.216,77.792-42.592Zm44-26.752q-9.5,0-14.784,5.72a22.942,22.942,0,0,0-6.16,13.112h41.888a21.514,21.514,0,0,0-5.72-13.024Q131.824-69.344,121.792-69.344ZM183.92-42.592a45.307,45.307,0,0,1,5.808-22.968A41.551,41.551,0,0,1,205.744-81.4a46.7,46.7,0,0,1,23.232-5.72q12.144,0,20.5,4.4a36.625,36.625,0,0,1,13.112,11.088L247.984-58.08q-6.336-9.152-17.952-9.152-10.208,0-16.632,6.776t-6.424,17.864q0,11.088,6.424,17.952t16.632,6.864a21.817,21.817,0,0,0,10.208-2.376,21.908,21.908,0,0,0,7.744-6.776l14.608,13.552A36.625,36.625,0,0,1,249.48-2.288q-8.36,4.4-20.5,4.4a46.7,46.7,0,0,1-23.232-5.72,41.551,41.551,0,0,1-16.016-15.84A45.658,45.658,0,0,1,183.92-42.592ZM286-85.008h22.352v11.616a36.535,36.535,0,0,1,11.968-9.68,32.263,32.263,0,0,1,15.136-3.872V-65.12a28.54,28.54,0,0,0-6.16-.528,30.326,30.326,0,0,0-11.968,2.728q-6.336,2.728-8.976,6.776V0H286ZM415.536-10.736a40.3,40.3,0,0,1-12.584,9.152,39.377,39.377,0,0,1-17.336,3.7q-13.728,0-20.592-7.04T358.16-24.64V-85.008h22.352V-33.44q0,8.448,4.048,12.056t11.616,3.608a22.58,22.58,0,0,0,11.088-2.816,26.692,26.692,0,0,0,8.272-6.864V-85.008h22.352V0H415.536ZM479.952-97.5a12.861,12.861,0,0,1-9.416-3.96,12.861,12.861,0,0,1-3.96-9.416,12.861,12.861,0,0,1,3.96-9.416,12.861,12.861,0,0,1,9.416-3.96,12.921,12.921,0,0,1,9.5,3.872,12.921,12.921,0,0,1,3.872,9.5,13.007,13.007,0,0,1-3.872,9.416A12.776,12.776,0,0,1,479.952-97.5Zm-11.088,12.5h22.352V0H468.864ZM550.7,2.112q-11.792,0-17.952-5.984t-6.16-17.248V-65.472h-14.08V-85.008h14.08V-108.24H549.12v23.232h17.248v19.536H549.12V-27.1a10.369,10.369,0,0,0,2.112,6.688,6.847,6.847,0,0,0,5.632,2.64,14.387,14.387,0,0,0,4.576-.7,8.022,8.022,0,0,0,3.168-1.76l4.752,16.9Q563.2,2.112,550.7,2.112Z" transform="translate(906 488)" fill="#182d58"/>
    <path id="Path_23915" data-name="Path 23915" d="M54.912-42.064h-18.3V0H11.616V-117.392H66.528a43.468,43.468,0,0,1,20.944,4.84A33.371,33.371,0,0,1,101.2-99.088a39.8,39.8,0,0,1,4.752,19.536q0,14.432-7.48,23.408A32.824,32.824,0,0,1,80.256-44.7L106.656,0H77.968Zm25.52-37.664a14.966,14.966,0,0,0-5.016-11.7A18.171,18.171,0,0,0,62.832-95.92H36.608v32.384H62.832a18.171,18.171,0,0,0,12.584-4.488A14.966,14.966,0,0,0,80.432-79.728Z" transform="translate(1483 488)" fill="#0037fd"/>
    <path id="Path_23914" data-name="Path 23914" d="M11.44,13.2a17.146,17.146,0,0,0,7.04,1.408A16.594,16.594,0,0,0,25.872,13.2a9.708,9.708,0,0,0,4.4-4.752L33.44,1.232l-34.5-86.24H22.88L45.056-25.872,67.232-85.008H91.344L51.392,13.9q-4.4,11.264-12.32,15.752T19.184,34.5a56.483,56.483,0,0,1-5.808-.352,34.849,34.849,0,0,1-5.28-.88ZM138.688,2.112q-11.792,0-17.952-5.984t-6.16-17.248V-65.472H100.5V-85.008h14.08V-108.24H137.1v23.232h17.248v19.536H137.1V-27.1a10.369,10.369,0,0,0,2.112,6.688,6.847,6.847,0,0,0,5.632,2.64,14.387,14.387,0,0,0,4.576-.7,8.022,8.022,0,0,0,3.168-1.76l4.752,16.9Q151.184,2.112,138.688,2.112Zm34.32-44.7a45.358,45.358,0,0,1,5.632-22.44,42.549,42.549,0,0,1,15.664-16.1,43.462,43.462,0,0,1,22.7-5.984,41.773,41.773,0,0,1,22.176,5.9A39.943,39.943,0,0,1,254.232-64.68,53.422,53.422,0,0,1,259.6-40.3v4.928H196.416a21.578,21.578,0,0,0,7.568,14.08q6.512,5.632,16.9,5.632a35.893,35.893,0,0,0,12.408-2.288,29.175,29.175,0,0,0,10.3-6.16L253.44-9.68a41.685,41.685,0,0,1-15.576,8.8,62.737,62.737,0,0,1-19.448,2.992,48.542,48.542,0,0,1-23.232-5.544A40.619,40.619,0,0,1,178.9-19.1Q173.008-29.216,173.008-42.592Zm44-26.752q-9.5,0-14.784,5.72a22.941,22.941,0,0,0-6.16,13.112h41.888a21.514,21.514,0,0,0-5.72-13.024Q227.04-69.344,217.008-69.344Z" transform="translate(1604 484)" fill="#182d58"/>
  </g>
</svg>
