<svg xmlns="http://www.w3.org/2000/svg" width="1975.328" height="295.069" viewBox="0 0 1975.328 295.069">
  <g id="Group_6110" data-name="Group 6110" transform="translate(-443 -1060)">
    <g id="Group_6107" data-name="Group 6107" transform="translate(-339.633 52.845)">
      <g id="Group_6106" data-name="Group 6106" transform="translate(782.633 1007.155)">
        <g id="write-long-form">
          <circle id="Ellipse_606" data-name="Ellipse 606" cx="147.535" cy="147.535" r="147.535" transform="translate(0 0)" fill="#4ce6ff"/>
          <g id="Group_6100" data-name="Group 6100" transform="translate(52.198 67.038)" style="mix-blend-mode: multiply;isolation: isolate">
            <rect id="Rectangle_643" data-name="Rectangle 643" width="110.651" height="24.589" fill="#4de6ff"/>
          </g>
          <g id="Group_6101" data-name="Group 6101" transform="translate(52.198 116.216)" style="mix-blend-mode: multiply;isolation: isolate">
            <rect id="Rectangle_644" data-name="Rectangle 644" width="110.651" height="24.589" fill="#4de6ff"/>
          </g>
          <g id="Group_6102" data-name="Group 6102" transform="translate(52.198 165.394)" style="mix-blend-mode: multiply;isolation: isolate">
            <rect id="Rectangle_645" data-name="Rectangle 645" width="110.651" height="24.589" fill="#4de6ff"/>
          </g>
          <g id="Group_6103" data-name="Group 6103" transform="translate(52.198 214.572)" style="mix-blend-mode: multiply;isolation: isolate">
            <rect id="Rectangle_646" data-name="Rectangle 646" width="61.473" height="24.589" fill="#4de6ff"/>
          </g>
          <g id="Group_6104" data-name="Group 6104" transform="translate(52.198 17.84)" style="mix-blend-mode: multiply;isolation: isolate">
            <path id="Path_23934" data-name="Path 23934" d="M5,19.826c8.386-6.033,15.863-12.66,25.438-16.847L115.651,3V27.588H5Z" transform="translate(-5 -2.979)" fill="#4ce6ff" fill-rule="evenodd"/>
          </g>
        </g>
        <g id="Group_6105" data-name="Group 6105" transform="matrix(0.996, -0.087, 0.087, 0.996, 163.369, 29.257)">
          <path id="Path_23935" data-name="Path 23935" d="M41.693,156.8H0V115.112L104.018,11.094C116.4-1.292,136.517-4.578,148.9,7.808h0c12.434,12.435,9.15,32.636-3.285,45.071Z" transform="translate(16.9 0)" fill="#6631f8"/>
          <path id="Path_23933" data-name="Path 23933" d="M0,0,51.588,28.624,9.165,59.349C2.075,64.2.94,58.832.94,56.46Z" transform="translate(16.9 115.087) rotate(16)" fill="#e333ff"/>
        </g>
      </g>
    </g>
    <path id="Path_23941" data-name="Path 23941" d="M35.216,1.42a12.351,12.351,0,0,1-9.088-3.692,12.351,12.351,0,0,1-3.692-9.088V-133.2a12.829,12.829,0,0,1,3.692-9.23,12.121,12.121,0,0,1,9.088-3.834,12.582,12.582,0,0,1,9.23,3.834,12.582,12.582,0,0,1,3.834,9.23v12.212q19.88-26.7,44.588-26.7h1.42a11.887,11.887,0,0,1,8.946,3.692,12.61,12.61,0,0,1,3.55,9.088,11.436,11.436,0,0,1-3.692,8.8,13.279,13.279,0,0,1-9.372,3.408H92.3a48.439,48.439,0,0,0-24.992,6.674A57.555,57.555,0,0,0,48.28-97.7V-11.36a12.121,12.121,0,0,1-3.834,9.088A12.829,12.829,0,0,1,35.216,1.42ZM191.7,2.84q-34.648,0-54.1-19.738T118.144-72.42a92.564,92.564,0,0,1,7.384-37.2,63.239,63.239,0,0,1,22.72-27.548q15.336-10.508,37.772-10.508,21.016,0,36.352,9.8a63.362,63.362,0,0,1,23.288,26.128,80.312,80.312,0,0,1,7.952,35.642,12.61,12.61,0,0,1-3.55,9.088,12.585,12.585,0,0,1-9.514,3.692H144.272q2.272,19.88,14.768,30.956T193.972-21.3a85.367,85.367,0,0,0,20.874-2.272A86.691,86.691,0,0,0,232.312-30.1a11.273,11.273,0,0,1,5.112-1.136,11.4,11.4,0,0,1,7.952,3.124,10.313,10.313,0,0,1,3.408,7.952q0,6.248-7.384,10.508A102.806,102.806,0,0,1,219.532-.284Q208.74,2.84,191.7,2.84Zm36.352-87.188q-.852-13.916-7.242-23.288a39.1,39.1,0,0,0-15.762-13.774,44.346,44.346,0,0,0-19.028-4.4,44.346,44.346,0,0,0-19.028,4.4,38.134,38.134,0,0,0-15.62,13.774q-6.248,9.372-7.1,23.288ZM354.716,2.84a80.07,80.07,0,0,1-37.772-9.088,69.952,69.952,0,0,1-27.69-26.128q-10.366-17.04-10.366-40.044t10.366-40.044a69.952,69.952,0,0,1,27.69-26.128,80.07,80.07,0,0,1,37.772-9.088q15.052,0,25.986,3.834a98.177,98.177,0,0,1,20.306,9.8q5.68,3.692,5.68,9.94a11.3,11.3,0,0,1-3.266,7.81,9.968,9.968,0,0,1-7.526,3.55,12.947,12.947,0,0,1-6.248-1.7A108.153,108.153,0,0,0,373.6-121.41a55.376,55.376,0,0,0-16.614-2.13q-24.424,0-38.34,14.058T304.732-72.42q0,23,13.916,37.062T356.988-21.3A55.376,55.376,0,0,0,373.6-23.43a108.152,108.152,0,0,0,16.046-6.958,12.947,12.947,0,0,1,6.248-1.7,9.968,9.968,0,0,1,7.526,3.55,11.3,11.3,0,0,1,3.266,7.81q0,6.248-5.68,9.94A98.176,98.176,0,0,1,380.7-.994Q369.768,2.84,354.716,2.84Zm97.128-1.42a12.351,12.351,0,0,1-9.088-3.692,12.351,12.351,0,0,1-3.692-9.088V-133.2a12.829,12.829,0,0,1,3.692-9.23,12.121,12.121,0,0,1,9.088-3.834,12.582,12.582,0,0,1,9.23,3.834,12.582,12.582,0,0,1,3.834,9.23v12.212q19.88-26.7,44.588-26.7h1.42a11.887,11.887,0,0,1,8.946,3.692,12.61,12.61,0,0,1,3.55,9.088,11.436,11.436,0,0,1-3.692,8.8,13.279,13.279,0,0,1-9.372,3.408h-1.42a48.439,48.439,0,0,0-24.992,6.674A57.555,57.555,0,0,0,464.908-97.7V-11.36a12.121,12.121,0,0,1-3.834,9.088A12.829,12.829,0,0,1,451.844,1.42ZM597.252,2.84q-15.62,0-27.122-7.384a48.01,48.01,0,0,1-17.608-20.164,64.371,64.371,0,0,1-6.106-28.116V-133.48a12.121,12.121,0,0,1,3.834-9.088,12.829,12.829,0,0,1,9.23-3.692,12.351,12.351,0,0,1,9.088,3.692,12.351,12.351,0,0,1,3.692,9.088v77.816q0,34.648,31.24,34.648A45.2,45.2,0,0,0,628.918-28.4a92,92,0,0,0,21.158-19.88v-85.2a12.121,12.121,0,0,1,3.834-9.088,12.829,12.829,0,0,1,9.23-3.692,12.351,12.351,0,0,1,9.088,3.692,12.351,12.351,0,0,1,3.692,9.088V-11.644a12.829,12.829,0,0,1-3.692,9.23A12.121,12.121,0,0,1,663.14,1.42a12.582,12.582,0,0,1-9.23-3.834,12.582,12.582,0,0,1-3.834-9.23V-23.288A94.4,94.4,0,0,1,626.788-4.26Q614.292,2.84,597.252,2.84ZM733-174.376a13.944,13.944,0,0,1-10.224-4.26,13.944,13.944,0,0,1-4.26-10.224V-190a13.944,13.944,0,0,1,4.26-10.224A13.944,13.944,0,0,1,733-204.48h1.7a13.944,13.944,0,0,1,10.224,4.26A13.944,13.944,0,0,1,749.192-190v1.136a13.944,13.944,0,0,1-4.26,10.224,13.944,13.944,0,0,1-10.224,4.26Zm.568,175.8a12.351,12.351,0,0,1-9.088-3.692,12.351,12.351,0,0,1-3.692-9.088V-133.2a12.829,12.829,0,0,1,3.692-9.23,12.121,12.121,0,0,1,9.088-3.834,12.7,12.7,0,0,1,9.372,3.692,12.7,12.7,0,0,1,3.692,9.372V-11.36A12.121,12.121,0,0,1,742.8-2.272,12.829,12.829,0,0,1,733.572,1.42Zm107.92,1.42q-41.464,0-41.464-37.488v-88.04H779.864a5.213,5.213,0,0,1-3.834-1.562,5.213,5.213,0,0,1-1.562-3.834,5.939,5.939,0,0,1,2.556-4.828l38.624-37.772q2.556-2.556,4.828-2.556a5,5,0,0,1,3.834,1.7,5.7,5.7,0,0,1,1.562,3.976v22.72h32.092a10.772,10.772,0,0,1,7.952,3.124,10.772,10.772,0,0,1,3.124,7.952,10.9,10.9,0,0,1-3.124,7.81,10.528,10.528,0,0,1-7.952,3.266H825.872V-36.92q0,11.076,5.254,14.058t13.206,2.982a39.358,39.358,0,0,0,11.36-1.7q1.136-.284,2.414-.568a15.476,15.476,0,0,1,3.266-.284,10.009,10.009,0,0,1,7.1,2.982,9.638,9.638,0,0,1,3.124,7.242q0,6.532-6.532,9.94A55.577,55.577,0,0,1,841.492,2.84Zm108.488,0q-41.464,0-41.464-37.488v-88.04H888.352a5.213,5.213,0,0,1-3.834-1.562,5.213,5.213,0,0,1-1.562-3.834,5.939,5.939,0,0,1,2.556-4.828l38.624-37.772q2.556-2.556,4.828-2.556a5,5,0,0,1,3.834,1.7,5.7,5.7,0,0,1,1.562,3.976v22.72h32.092a10.772,10.772,0,0,1,7.952,3.124,10.772,10.772,0,0,1,3.124,7.952,10.9,10.9,0,0,1-3.124,7.81,10.527,10.527,0,0,1-7.952,3.266H934.36V-36.92q0,11.076,5.254,14.058T952.82-19.88a39.358,39.358,0,0,0,11.36-1.7q1.136-.284,2.414-.568a15.476,15.476,0,0,1,3.266-.284,10.009,10.009,0,0,1,7.1,2.982,9.638,9.638,0,0,1,3.124,7.242q0,6.532-6.532,9.94A55.577,55.577,0,0,1,949.98,2.84Zm76.4-1.42a12.351,12.351,0,0,1-9.088-3.692,12.351,12.351,0,0,1-3.692-9.088V-185.168a12.829,12.829,0,0,1,3.692-9.23,12.121,12.121,0,0,1,9.088-3.834h66.172q38.624,0,57.936,15.9T1169.8-140.58a54.285,54.285,0,0,1-9.514,31.1q-9.514,14.058-27.69,20.306,20.448,5.4,27.974,25.418a111.31,111.31,0,0,1,7.526,39.334V-11.36a12.351,12.351,0,0,1-3.692,9.088,12.351,12.351,0,0,1-9.088,3.692,12.857,12.857,0,0,1-9.514-3.55,12.486,12.486,0,0,1-3.55-9.23v-8.52a126.838,126.838,0,0,0-2.556-26.27,42.244,42.244,0,0,0-12.212-21.584q-9.656-9.514-29.252-9.514H1039.44V-11.36a12.121,12.121,0,0,1-3.834,9.088A12.829,12.829,0,0,1,1026.376,1.42Zm64.468-103.092q24.424,0,38.766-9.656t14.342-27.264q0-17.04-12.354-26.128t-42.174-9.088H1039.44v72.136ZM1243.068,66.74a11.559,11.559,0,0,1-8.662-3.692,12.262,12.262,0,0,1-3.55-8.8,12.863,12.863,0,0,1,.852-4.544l18.46-47.428L1196.776-127.8a14.538,14.538,0,0,1-1.136-5.4,12.829,12.829,0,0,1,3.692-9.23,12.121,12.121,0,0,1,9.088-3.834,12.4,12.4,0,0,1,7.242,2.272,12.891,12.891,0,0,1,4.686,5.68L1264.084-29.82l44.588-107.92q3.692-8.52,11.928-8.52a12.121,12.121,0,0,1,9.088,3.834,12.829,12.829,0,0,1,3.692,9.23,13.636,13.636,0,0,1-.852,4.828L1255,57.936Q1251.02,66.74,1243.068,66.74Zm176.08-63.9q-41.464,0-41.464-37.488v-88.04H1357.52a5.213,5.213,0,0,1-3.834-1.562,5.212,5.212,0,0,1-1.562-3.834,5.939,5.939,0,0,1,2.556-4.828l38.624-37.772q2.556-2.556,4.828-2.556a5,5,0,0,1,3.834,1.7,5.7,5.7,0,0,1,1.562,3.976v22.72h32.092a10.772,10.772,0,0,1,7.952,3.124,10.772,10.772,0,0,1,3.124,7.952,10.9,10.9,0,0,1-3.124,7.81,10.528,10.528,0,0,1-7.952,3.266h-32.092V-36.92q0,11.076,5.254,14.058t13.206,2.982a39.358,39.358,0,0,0,11.36-1.7q1.136-.284,2.414-.568a15.478,15.478,0,0,1,3.266-.284,10.009,10.009,0,0,1,7.1,2.982,9.638,9.638,0,0,1,3.124,7.242q0,6.532-6.532,9.94A55.576,55.576,0,0,1,1419.148,2.84Zm121.268,0q-34.648,0-54.1-19.738T1466.86-72.42a92.563,92.563,0,0,1,7.384-37.2,63.24,63.24,0,0,1,22.72-27.548q15.336-10.508,37.772-10.508,21.016,0,36.352,9.8a63.361,63.361,0,0,1,23.288,26.128,80.311,80.311,0,0,1,7.952,35.642,12.61,12.61,0,0,1-3.55,9.088,12.585,12.585,0,0,1-9.514,3.692h-96.276q2.272,19.88,14.768,30.956T1542.688-21.3a85.367,85.367,0,0,0,20.874-2.272,86.693,86.693,0,0,0,17.466-6.532,11.272,11.272,0,0,1,5.112-1.136,11.4,11.4,0,0,1,7.952,3.124,10.313,10.313,0,0,1,3.408,7.952q0,6.248-7.384,10.508a102.8,102.8,0,0,1-21.868,9.372Q1557.456,2.84,1540.416,2.84Zm36.352-87.188q-.852-13.916-7.242-23.288a39.1,39.1,0,0,0-15.762-13.774,44.346,44.346,0,0,0-19.028-4.4,44.346,44.346,0,0,0-19.028,4.4,38.135,38.135,0,0,0-15.62,13.774q-6.248,9.372-7.1,23.288Z" transform="translate(813 1275.98)" fill="#182d58" stroke="#182d58" stroke-width="6"/>
  </g>
</svg>
