<svg xmlns="http://www.w3.org/2000/svg" version="1.1" xmlns:xlink="http://www.w3.org/1999/xlink" xmlns:svgjs="http://svgjs.com/svgjs" width="512" height="512" x="0" y="0" viewBox="0 0 66 66" style="enable-background:new 0 0 512 512" xml:space="preserve" class=""><g><path fill="#ebfcff" d="M58.05 40.11H31.43l-7.22-8.59h26.62zM2 40.11h14.99l7.22-8.59H9.22z" data-original="#ddebfd" class=""></path><path fill="#ebfcff" d="m31.43 40.11-7.22-8.59v29.33h26.62V40.11z" data-original="#b9d7ff" class=""></path><path fill="#4ce6ff" d="M16.99 40.11H9.22v20.74h14.99V31.52zM51.25 29.85l-1.99-1.99c-.34.43-.7.85-1.1 1.25s-.82.76-1.25 1.1l1.99 1.99c-.23 1 .05 2.1.83 2.88l8.96 8.96c1.21 1.21 3.18 1.21 4.39 0s1.21-3.18 0-4.39l-8.96-8.96c-.77-.8-1.86-1.07-2.87-.84z" data-original="#7cb7ff" class=""></path><circle cx="38.24" cy="19.18" r="14.03" fill="#ebfcff" data-original="#b9d7ff" class=""></circle><path fill="#ebfcff" d="M38.24 29.21a9.93 9.93 0 0 1-7.09-2.94c-3.91-3.91-3.91-10.28 0-14.19 1.9-1.9 4.41-2.94 7.09-2.94s5.2 1.04 7.09 2.94c3.91 3.91 3.91 10.28 0 14.19a9.93 9.93 0 0 1-7.09 2.94z" data-original="#ffffff" class=""></path><g fill="#1576ed"><path d="M45.87 11.55c-2.04-2.04-4.74-3.16-7.63-3.16s-5.59 1.12-7.62 3.16c-4.2 4.21-4.2 11.05 0 15.25 2.04 2.04 4.74 3.16 7.62 3.16s5.59-1.12 7.63-3.16c4.2-4.2 4.2-11.04 0-15.25zm-1.06 14.19c-1.75 1.75-4.08 2.72-6.56 2.72s-4.81-.97-6.56-2.72c-3.62-3.62-3.62-9.51 0-13.13 1.75-1.75 4.08-2.72 6.56-2.72s4.81.97 6.56 2.72c3.62 3.62 3.62 9.51 0 13.13z" fill="#6631f8" data-original="#1576ed" class=""></path><path d="m63.62 39.1-8.96-8.96a3.846 3.846 0 0 0-3.15-1.1l-1.26-1.26c4.14-5.77 3.63-13.87-1.55-19.06-5.76-5.76-15.14-5.76-20.91 0-5.76 5.76-5.76 15.14 0 20.91 2.88 2.88 6.67 4.32 10.45 4.32 3.02 0 6.04-.94 8.6-2.77l1.26 1.26c-.13 1.16.26 2.32 1.1 3.15l8.96 8.96c.75.75 1.74 1.13 2.73 1.13s1.98-.38 2.73-1.13c1.5-1.5 1.5-3.94 0-5.45zM28.85 28.57c-2.51-2.51-3.89-5.84-3.89-9.39s1.38-6.88 3.89-9.39 5.84-3.89 9.39-3.89 6.88 1.38 9.39 3.89 3.89 5.84 3.89 9.39-1.38 6.88-3.89 9.39-5.84 3.89-9.39 3.89-6.88-1.38-9.39-3.89zM62.56 43.5c-.92.92-2.41.92-3.33 0l-8.96-8.96c-.57-.57-.8-1.39-.63-2.18a.735.735 0 0 0-.2-.69l-1.42-1.42c.23-.2.46-.39.67-.61.22-.22.41-.45.61-.67l1.42 1.42c.18.18.44.26.69.2.8-.18 1.61.05 2.19.63l8.96 8.96c.45.45.69 1.04.69 1.67s-.24 1.2-.69 1.65z" fill="#6631f8" data-original="#1576ed" class=""></path><path d="m17.56 40.6 6.65-7.91 6.65 7.91c.14.17.35.27.57.27h19.11c.41 0 .75-.34.75-.75s-.34-.75-.75-.75H31.78l-5.96-7.09h.71c.41 0 .75-.34.75-.75s-.34-.75-.75-.75H9.22c-.22 0-.43.1-.57.27l-7.22 8.59c-.19.22-.23.54-.11.8s.39.43.68.43h14.99c.22-.01.43-.11.57-.27zM3.61 39.36l5.96-7.09H22.6l-5.96 7.09zM35.58 53.66h-7.84c-.41 0-.75.34-.75.75s.34.75.75.75h7.84c.41 0 .75-.34.75-.75s-.34-.75-.75-.75zM35.58 56.57h-7.84c-.41 0-.75.34-.75.75s.34.75.75.75h7.84a.749.749 0 1 0 0-1.5zM41.77 15.65a.754.754 0 0 0-1.06 0l-2.47 2.47-2.47-2.47c-.29-.29-.77-.29-1.06 0s-.29.77 0 1.06l2.47 2.47-2.47 2.47c-.29.29-.29.77 0 1.06.15.15.34.22.53.22s.38-.07.53-.22l2.47-2.47 2.47 2.47c.15.15.34.22.53.22s.38-.07.53-.22c.29-.29.29-.77 0-1.06l-2.47-2.47 2.47-2.47c.3-.29.3-.77 0-1.06z" fill="#6631f8" data-original="#1576ed" class=""></path><path d="M50.83 42.36c-.41 0-.75.34-.75.75V60.1H24.96V36.18c0-.41-.34-.75-.75-.75s-.75.34-.75.75V60.1H9.97V43.11c0-.41-.34-.75-.75-.75s-.75.34-.75.75v17.74c0 .41.34.75.75.75h41.61c.41 0 .75-.34.75-.75V43.11c0-.41-.34-.75-.75-.75z" fill="#6631f8" data-original="#1576ed" class=""></path></g></g></svg>