<?xml version="1.0" encoding="utf-8"?>
<!-- Generator: Adobe Illustrator 24.0.3, SVG Export Plug-In . SVG Version: 6.00 Build 0)  -->
<svg version="1.1" id="Layer_1" xmlns="http://www.w3.org/2000/svg" xmlns:xlink="http://www.w3.org/1999/xlink" x="0px" y="0px"
	 viewBox="0 0 300 300" style="enable-background:new 0 0 300 300;" xml:space="preserve">
<style type="text/css">
	.st0{fill:#71D746;}
	.st1{fill:#FFFFFF;}
</style>
<rect x="0.5" y="0.5" class="st0" width="299" height="299"/>
<g>
	<path class="st1" d="M163.1,123.2c1.5-3.3,1.9-6.8,3.4-10c4.5-10,10.7-18.7,19.9-24.7c14.5-9.4,30.3-11,46.7-5.3
		c12.8,4.4,22.5,12.6,28.9,24.4c3.3,6.2,5.6,12.9,6.3,20c0.7,7.3,0.3,14.5-1.7,21.5c-3.8,12.7-10.8,23.2-22,30.5
		c-12.8,8.3-26.8,10.4-41.7,7.7c-7.7-1.4-15-4.1-21.8-8c-2.1-1.2-2.9-1.1-3.5,1.4c-3.4,16.5-6.9,33-10.3,49.6
		c-0.9,4.3-0.9,4.4-5.1,4.4c-6.8,0-13.6,0-20.4,0.1c-2.2,0-2.9-0.5-2.4-2.9c2.5-10.8,4.8-21.7,7.2-32.6c2.9-13.5,5.8-27,8.9-40.5
		c0.7-3.3-1.2-5.4-2.9-7.4c-4-4.8-6.7-10.3-10-15.5c-1.8-2.8-3.2-5.8-4.7-8.8c-0.3-0.5-0.4-1.2-1-1.1c-0.9,0.1-0.6,1-0.7,1.6
		c-0.2,5.2,0.2,10.4-0.5,15.6c-1.9,14-8.2,25.6-19.3,34.4c-18,14.2-42.4,15.3-61,2.9c-13.2-8.8-21.1-21.3-23.1-37.3
		c-0.6-4.9-0.5-9.8-0.5-14.8c0-20.2,0-40.4,0-60.6c0-2,0.6-2.7,2.5-2.7c7.3,0,14.5,0.1,21.8,0c2.5,0,2.5,1.6,2.5,3.4
		c0,13.1-0.1,26.3,0,39.4c0,10.3-0.3,20.7,0.3,31c0.5,8.7,6.4,16.9,15.4,20.7c6.9,2.9,13.8,2.8,20.4-0.2c6.4-2.9,10.9-7.9,13.4-14.6
		c1-2.8,1.5-5.7,1.5-8.7c0-22.3,0-44.5-0.1-66.8c0-3.9,0.1-4.1,4-4.1c6.5,0,13,0,19.6,0c2.4,0,3.8,0.8,4.4,3.3
		c2.1,8.6,5.7,16.6,9.2,24.7c4,9.4,9,18.2,14.1,27C161.1,121.3,161.7,122.4,163.1,123.2z M219.1,161.2c5.7,0.1,13.2-4.5,18.6-12.7
		c7.7-11.4,6-26-3.9-34.8c-6.9-6.2-15.3-8.1-24.1-6.4c-7.5,1.4-12.7,6.5-16.4,13.1c-4.4,7.6-5.1,16.4-7.5,24.6
		c-0.9,3.2-0.1,5,2.7,6.9C196.5,157.2,204.9,161,219.1,161.2z"/>
</g>
</svg>
