<svg xmlns="http://www.w3.org/2000/svg" width="24" height="24" viewBox="0 0 24 24">
  <g id="vuesax_outline_directbox-notif" data-name="vuesax/outline/directbox-notif" transform="translate(-172 -188)">
    <g id="directbox-notif">
      <path id="Vector" d="M13.75,11.5h-8C0,11.5,0,8.45,0,5.75v-1C0,2.52,0,0,4.75,0A3.112,3.112,0,0,1,7,.75a.812.812,0,0,1,.1.09L8.12,1.92a2.312,2.312,0,0,0,3.28,0L12.42.84a.9.9,0,0,1,.1-.09A3.069,3.069,0,0,1,14.77,0c4.75,0,4.75,2.52,4.75,4.75v1C19.5,9.57,17.57,11.5,13.75,11.5Zm-9-10C1.5,1.5,1.5,2.52,1.5,4.75v1C1.5,8.49,1.5,10,5.75,10h8C16.73,10,18,8.73,18,5.75v-1c0-2.23,0-3.25-3.25-3.25a1.638,1.638,0,0,0-1.3.41l-.97,1.03a3.748,3.748,0,0,1-5.46,0L6.05,1.91A1.638,1.638,0,0,0,4.75,1.5Z" transform="translate(174.25 199.25)" fill="#292d32"/>
      <path id="Vector-2" data-name="Vector" d="M14.75,11.5a.755.755,0,0,1-.75-.75v-6c0-2.23,0-3.25-3.25-3.25h-6C1.5,1.5,1.5,2.52,1.5,4.75v6a.755.755,0,0,1-.75.75A.755.755,0,0,1,0,10.75v-6C0,2.52,0,0,4.75,0h6C15.5,0,15.5,2.52,15.5,4.75v6A.755.755,0,0,1,14.75,11.5Z" transform="translate(176.25 189.25)" fill="#292d32"/>
      <path id="Vector-3" data-name="Vector" d="M4.08,1.5H.75A.755.755,0,0,1,0,.75.755.755,0,0,1,.75,0H4.08a.75.75,0,0,1,0,1.5Z" transform="translate(181.8 196.48)" fill="#292d32"/>
      <path id="Vector-4" data-name="Vector" d="M5.75,1.5h-5A.755.755,0,0,1,0,.75.755.755,0,0,1,.75,0h5a.75.75,0,0,1,0,1.5Z" transform="translate(180.97 193.48)" fill="#292d32"/>
      <path id="Vector-5" data-name="Vector" d="M0,0H24V24H0Z" transform="translate(172 188)" fill="none" opacity="0"/>
    </g>
  </g>
</svg>
