<svg id="vuesax_outline_import" data-name="vuesax/outline/import" xmlns="http://www.w3.org/2000/svg" width="16.25" height="16.25" viewBox="0 0 16.25 16.25">
  <g id="import">
    <path id="Vector" d="M9.161,9.542H4.746C1.422,9.542,0,8.12,0,4.8V4.707C0,1.7,1.185.252,3.839,0a.523.523,0,0,1,.555.46.509.509,0,0,1-.46.555c-2.126.2-2.918,1.2-2.918,3.7V4.8c0,2.756.975,3.731,3.731,3.731H9.161c2.756,0,3.731-.975,3.731-3.731V4.714c0-2.512-.806-3.514-2.972-3.7A.506.506,0,1,1,10.007.008c2.695.23,3.9,1.686,3.9,4.712v.088C13.907,8.12,12.485,9.542,9.161,9.542Z" transform="translate(1.171 5.524)" fill="#292d32"/>
    <path id="Vector-2" data-name="Vector" d="M.508,9.736A.512.512,0,0,1,0,9.229V.508A.512.512,0,0,1,.508,0a.512.512,0,0,1,.508.508V9.229A.507.507,0,0,1,.508,9.736Z" transform="translate(7.617 0.846)" fill="#292d32"/>
    <path id="Vector-3" data-name="Vector" d="M2.774,3.282a.5.5,0,0,1-.359-.149L.147.865A.507.507,0,0,1,.865.147L2.774,2.057,4.684.147A.507.507,0,1,1,5.4.865L3.133,3.133A.5.5,0,0,1,2.774,3.282Z" transform="translate(5.351 8.059)" fill="#292d32"/>
    <path id="Vector-4" data-name="Vector" d="M0,0H16.25V16.25H0Z" fill="none" opacity="0"/>
  </g>
</svg>
