<svg xmlns="http://www.w3.org/2000/svg" width="24" height="24" fill="#292d32" xmlns:v="https://vecta.io/nano"><path d="M15.24 22.27h-.13c-4.44 0-6.58-1.75-6.95-5.67a.75.75 0 0 1 .68-.82c.412-.032.775.269.82.68.29 3.14 1.77 4.31 5.46 4.31h.128c4.07 0 5.51-1.44 5.51-5.51V8.74c0-4.07-1.44-5.51-5.51-5.51h-.13c-3.71 0-5.19 1.19-5.46 4.39a.76.76 0 0 1-.818.673.76.76 0 0 1-.692-.803c.342-3.98 2.492-5.76 6.962-5.76h.13c4.908 0 7.008 2.1 7.008 7.01v6.52c0 4.91-2.1 7.01-7.008 7.01zM15 12.75H3.62c-.413-.003-.747-.337-.75-.75.003-.413.337-.747.75-.75H15c.413.003.747.337.75.75-.003.413-.337.747-.75.75z"/><path d="M5.853 16.102a.74.74 0 0 1-.53-.22L1.971 12.53c-.29-.294-.29-.766 0-1.06l3.35-3.35a.75.75 0 0 1 1.06 1.06L3.56 12.002l2.82 2.82c.29.294.29.766 0 1.06-.138.142-.329.222-.527.22z"/></svg>