<svg xmlns="http://www.w3.org/2000/svg" width="20.174" height="20.174" fill="#292d32" xmlns:v="https://vecta.io/nano"><path d="M12.609 19.124H7.566c-4.565 0-6.515-1.951-6.515-6.515V7.566c0-4.565 1.95-6.515 6.515-6.515h4.2c.347.003.627.283.63.63-.003.347-.283.627-.63.63h-4.2c-3.875 0-5.254 1.379-5.254 5.254v5.044c0 3.875 1.379 5.254 5.254 5.254h5.044c3.875 0 5.254-1.379 5.254-5.254v-4.2a.63.63 0 1 1 1.261 0v4.2c-.001 4.564-1.952 6.515-6.516 6.515z"/><path d="M18.493 9.036h-3.362c-2.875 0-3.993-1.118-3.993-3.992V1.681c-.001-.254.152-.484.387-.58s.507-.045.689.134l6.724 6.725a.63.63 0 0 1-.446 1.076zm-6.094-5.833v1.841c0 2.169.563 2.732 2.732 2.732h1.841z"/></svg>