<svg xmlns="http://www.w3.org/2000/svg" width="16.62" height="16.62" fill="#2e4ab5" xmlns:v="https://vecta.io/nano"><path d="M10.388 15.755H6.233c-3.76 0-5.367-1.607-5.367-5.367V6.233c0-3.76 1.607-5.367 5.367-5.367h1.385c.286.002.517.233.519.519a.52.52 0 0 1-.519.519H6.233c-3.192 0-4.328 1.136-4.328 4.328v4.156c0 3.192 1.136 4.328 4.328 4.328h4.155c3.192 0 4.328-1.136 4.328-4.328V9.003a.52.52 0 0 1 1.04 0v1.385c0 3.76-1.607 5.367-5.367 5.367zM5.887 12.25a1.55 1.55 0 0 1-1.095-.429 1.56 1.56 0 0 1-.408-1.35l.298-2.08a2.4 2.4 0 0 1 .6-1.2l5.459-5.466a2.6 2.6 0 0 1 4.155 0 2.89 2.89 0 0 1 1.025 2.292 3.08 3.08 0 0 1-1.025 1.856l-5.457 5.456a2.4 2.4 0 0 1-1.2.6l-2.084.3a1.2 1.2 0 0 1-.268.021zm5.588-9.791L6.018 7.915a1.41 1.41 0 0 0-.312.616l-.3 2.084c-.037.167.007.341.118.471.13.111.304.155.471.118l2.084-.3a1.37 1.37 0 0 0 .619-.313l5.457-5.452c.374-.314.628-.747.72-1.226a1.92 1.92 0 0 0-.72-1.461c-1.108-1.108-1.87-.797-2.68.007z"/><path d="M13.747 6.807c-.047 0-.094-.007-.139-.021a5.5 5.5 0 0 1-3.781-3.781c-.076-.277.084-.564.36-.644.132-.037.274-.02.393.048s.207.18.244.312a4.45 4.45 0 0 0 3.061 3.061c.277.079.438.367.36.644a.51.51 0 0 1-.498.381z"/></svg>