<svg xmlns="http://www.w3.org/2000/svg" width="21" height="21" fill="#292d32" xmlns:v="https://vecta.io/nano"><path d="M13.125 19.907h-5.25c-4.751 0-6.781-2.03-6.781-6.782v-5.25c0-4.751 2.03-6.781 6.781-6.781h4.375a.66.66 0 0 1 .656.656.66.66 0 0 1-.656.656H7.875c-4.034 0-5.469 1.435-5.469 5.469v5.25c0 4.034 1.435 5.469 5.469 5.469h5.25c4.034 0 5.469-1.435 5.469-5.469V8.75c0-.363.294-.656.657-.656s.656.294.657.656v4.375c0 4.752-2.03 6.782-6.782 6.782z"/><path d="M19.25 9.406h-3.5c-2.992 0-4.156-1.164-4.156-4.156v-3.5a.65.65 0 0 1 .4-.6.66.66 0 0 1 .717.14l7 7c.187.188.242.47.141.714a.66.66 0 0 1-.605.406zm-6.343-6.072V5.25c0 2.257.587 2.845 2.843 2.845h1.917zm-1.532 8.698h-5.25a.66.66 0 0 1-.656-.657.66.66 0 0 1 .656-.656h5.25a.66.66 0 0 1 .656.656.66.66 0 0 1-.656.657zm-1.75 3.5h-3.5a.66.66 0 0 1-.656-.657.66.66 0 0 1 .656-.656h3.5a.66.66 0 0 1 .656.656.66.66 0 0 1-.656.657z"/></svg>