<svg xmlns="http://www.w3.org/2000/svg" width="24" height="24" viewBox="0 0 24 24">
  <g id="vuesax_outline_user-square" data-name="vuesax/outline/user-square" transform="translate(-748 -188)">
    <g id="user-square">
      <path id="Vector" d="M9.891,6.53h-6a11.662,11.662,0,0,1-3.35-.41A.767.767,0,0,1,0,5.34C.251,2.35,3.281,0,6.891,0s6.63,2.34,6.89,5.34a.738.738,0,0,1-.54.78A11.662,11.662,0,0,1,9.891,6.53ZM1.611,4.84a11.848,11.848,0,0,0,2.28.19h6a11.848,11.848,0,0,0,2.28-.19c-.53-1.92-2.72-3.34-5.28-3.34S2.141,2.92,1.611,4.84Z" transform="translate(753.109 204.22)" fill="#292d32"/>
      <path id="Vector-2" data-name="Vector" d="M13,0H7C2,0,0,2,0,7v6c0,3.78,1.14,5.85,3.86,6.62.22-2.6,2.89-4.65,6.14-4.65s5.92,2.05,6.14,4.65C18.86,18.85,20,16.78,20,13V7C20,2,18,0,13,0ZM10,12.17a3.585,3.585,0,1,1,3.58-3.59A3.585,3.585,0,0,1,10,12.17Z" transform="translate(750 190)" fill="none" stroke="#292d32" stroke-linecap="round" stroke-linejoin="round" stroke-width="1.5"/>
      <path id="Vector-3" data-name="Vector" d="M4.33,8.67A4.335,4.335,0,1,1,8.66,4.33,4.34,4.34,0,0,1,4.33,8.67Zm0-7.17A2.835,2.835,0,1,0,7.16,4.33,2.834,2.834,0,0,0,4.33,1.5Z" transform="translate(755.67 194.25)" fill="#292d32"/>
      <path id="Vector-4" data-name="Vector" d="M0,0H24V24H0Z" transform="translate(748 188)" fill="none" opacity="0"/>
    </g>
  </g>
</svg>
