<svg xmlns="http://www.w3.org/2000/svg" width="24" height="24" xmlns:v="https://vecta.io/nano"><path d="M15 22.75H9a11.66 11.66 0 0 1-3.35-.41c-.339-.104-.563-.426-.541-.78.251-2.99 3.281-5.34 6.891-5.34s6.63 2.34 6.89 5.34a.74.74 0 0 1-.54.78 11.66 11.66 0 0 1-3.35.41zm-8.28-1.69a11.85 11.85 0 0 0 2.28.19h6a11.85 11.85 0 0 0 2.28-.19c-.53-1.92-2.72-3.34-5.28-3.34s-4.75 1.42-5.28 3.34z" fill="#292d32"/><path d="M15 2H9C4 2 2 4 2 9v6c0 3.78 1.14 5.85 3.86 6.62.22-2.6 2.89-4.65 6.14-4.65s5.92 2.05 6.14 4.65C20.86 20.85 22 18.78 22 15V9c0-5-2-7-7-7zm-3 12.17c-1.98.003-3.587-1.6-3.59-3.58s1.6-3.587 3.58-3.59 3.587 1.6 3.59 3.58c.001.951-.375 1.863-1.046 2.536S12.951 14.169 12 14.17z" fill="none" stroke="#292d32" stroke-linejoin="round" stroke-width="1.5"/><path d="M12 14.92c-2.394.003-4.337-1.936-4.34-4.33s1.936-4.337 4.33-4.34 4.337 1.936 4.34 4.33A4.34 4.34 0 0 1 12 14.92zm0-7.17c-1.148-.002-2.183.688-2.623 1.748s-.198 2.28.614 3.092 2.032 1.054 3.092.614 1.75-1.476 1.748-2.623c-.002-1.562-1.268-2.828-2.83-2.83z" fill="#292d32"/></svg>