<svg xmlns="http://www.w3.org/2000/svg" width="24" height="24" fill="none" stroke="#292d32" stroke-linejoin="round" stroke-width="1.5" xmlns:v="https://vecta.io/nano"><path d="M9 19a3.92 3.92 0 0 1-.58 2.06C7.7 22.263 6.402 23 5 23s-2.7-.737-3.42-1.94A3.92 3.92 0 0 1 1 19a4 4 0 1 1 8 0z"/><path d="M3.441 19l.99.99 2.13-1.97" stroke-linecap="round"/><path d="M17.751 7.05c-.248-.037-.499-.054-.75-.05h-10a5.32 5.32 0 0 0-.81.06c.15-.289.346-.553.58-.78l3.25-3.26c1.374-1.36 3.586-1.36 4.96 0l1.75 1.77c.615.597.979 1.405 1.02 2.26z"/><path d="M22 12v5c.081 1.349-.419 2.669-1.375 3.625S18.349 22.081 17 22H7.63c.315-.266.583-.584.79-.94A3.92 3.92 0 0 0 9 19a4 4 0 0 0-7-2.64V12c-.166-2.508 1.689-4.695 4.19-4.94A5.32 5.32 0 0 1 7 7h10c.251-.004.502.013.75.05 2.527.22 4.415 2.419 4.25 4.95z"/><path d="M22 12.5h-3a2 2 0 1 0 0 4h3" stroke-linecap="round"/></svg>